<?xml version="1.0" encoding="UTF-8" standalone="no"?>
<!-- Created with Inkscape (http://www.inkscape.org/) -->

<svg
   width="48"
   height="48"
   viewBox="0 0 12.7 12.7"
   version="1.1"
   id="svg5"
   inkscape:version="1.1.2 (0a00cf5339, 2022-02-04)"
   sodipodi:docname="o.svg"
   xmlns:inkscape="http://www.inkscape.org/namespaces/inkscape"
   xmlns:sodipodi="http://sodipodi.sourceforge.net/DTD/sodipodi-0.dtd"
   xmlns="http://www.w3.org/2000/svg"
   xmlns:svg="http://www.w3.org/2000/svg">
  <sodipodi:namedview
     id="namedview7"
     pagecolor="#ffffff"
     bordercolor="#666666"
     borderopacity="1.0"
     inkscape:pageshadow="2"
     inkscape:pageopacity="0.0"
     inkscape:pagecheckerboard="0"
     inkscape:document-units="mm"
     showgrid="false"
     inkscape:zoom="0.77771465"
     inkscape:cx="-45.646562"
     inkscape:cy="561.25984"
     inkscape:window-width="2486"
     inkscape:window-height="1376"
     inkscape:window-x="0"
     inkscape:window-y="0"
     inkscape:window-maximized="1"
     inkscape:current-layer="layer1"
     units="px" />
  <defs
     id="defs2" />
  <g
     inkscape:label="Layer 1"
     inkscape:groupmode="layer"
     id="layer1">
    <path
       d="M 5.5048811,2.7332568 C 4.7668008,3.179243 4.3966797,3.3535214 4.6476889,3.2330506 4.2151009,3.5210772 2.6036454,4.3846684 3.8958217,3.6783948 1.3889302,5.3011439 2.186295,8.6327062 4.7055414,9.6870488 6.3234364,10.415288 8.320625,10.570014 9.884496,9.5711225 8.2395042,10.841211 11.286452,8.1510303 10.225724,7.0545283 9.3659759,4.7742062 6.8082517,3.8748197 4.6265172,3.7383112 2.5046101,3.5483423 6.118711,2.6372424 6.8547321,3.3752567 8.9740372,3.7317427 11.724375,5.5554572 11.097348,8.1437946 10.310045,10.274858 7.5845384,11.219327 5.5446974,10.734622 3.3423902,10.519627 0.33107471,8.0075431 1.7991017,5.535006 2.1131581,4.5485059 4.1042629,3.2168878 4.3094563,3.2525543 3.3888987,3.8753065 8.0642152,0.83905886 5.5047314,2.7330803 Z"
       id="path211"
       style="stroke:#000000;stroke-width:0.504157" />
  </g>
</svg>
